<?xml version="1.0" encoding="utf-8"?>
<!-- Generator: Adobe Illustrator 22.0.1, SVG Export Plug-In . SVG Version: 6.00 Build 0)  -->
<svg version="1.1" id="Calque_1" xmlns="http://www.w3.org/2000/svg" xmlns:xlink="http://www.w3.org/1999/xlink" x="0px" y="0px"
	 viewBox="0 0 187.9 74.9" style="enable-background:new 0 0 187.9 74.9;" xml:space="preserve">
<style type="text/css">
	.st0{fill:#FFFFFF;}
</style>
<g>
	<path class="st0" d="M76.2,29.6c-0.1,0.2-0.3,0.3-0.5,0.3c-3,4.6-8.1,9.4-13,13c2.5,2,5,4.5,6.6,6.3l-2,1.7
		c-3.4-4-9.7-9.3-15.2-12.5l1.5-1.6c2.3,1.3,4.9,3,7.2,4.8c4.4-3.1,8.8-7.3,11.3-11H48.5v-2.2h25.4l0.4-0.2L76.2,29.6z"/>
	<path class="st0" d="M81.9,26.9c3.4,1.1,7.2,2.7,9.6,4.4l-1.2,2c-2.3-1.6-6.1-3.4-9.4-4.5L81.9,26.9z M81.7,49.2
		c11.4-3.5,19-10,22.9-18.9c0.7,0.5,1.4,1,2.1,1.3c-4,8.8-11.9,15.7-22.8,19.3c0,0.3-0.2,0.6-0.5,0.7L81.7,49.2z"/>
	<path class="st0" d="M135.8,32c0,0.1-0.1,0.3-0.3,0.4c-0.5,9.3-1.4,15.1-2.6,17.4c-1.3,2.3-3.3,2.4-4.2,2.4c-1.2,0-3.5-0.3-5.7-0.8
		c0-0.6,0-1.6-0.1-2.3c2.4,0.5,4.9,0.8,5.6,0.8c1.2,0,1.8-0.3,2.4-1.5c1-1.9,1.8-7.3,2.1-14.6h-10.3c-1.6,7.7-4.8,14-10.6,18.4
		c-0.4-0.4-1.3-1.1-1.8-1.5c5.5-4.2,8.5-9.6,10.1-17h-8.9v-2.2h9.3c0.4-2.3,0.6-4.4,0.8-7.1l3.2,0.3c0,0.3-0.4,0.5-0.8,0.6
		c-0.2,2.4-0.4,4.2-0.7,6.2h10.5l0.5-0.2L135.8,32z M130.3,24.2c1.5,1.3,3.2,3.5,4.1,5l-1.3,0.9c-0.8-1.4-2.6-3.7-4-5L130.3,24.2z
		 M135.3,22.8c1.4,1.4,3.2,3.5,4.1,4.9l-1.3,0.9c-0.8-1.4-2.6-3.6-4-4.9L135.3,22.8z"/>
</g>
</svg>
